<mxfile host="app.diagrams.net" modified="2021-04-13T18:20:14.198Z" agent="5.0 (Windows NT 10.0; Win64; x64) AppleWebKit/537.36 (KHTML, like Gecko) Chrome/89.0.4389.114 Safari/537.36" etag="2uOwtz4gRa41OQOCMysD" version="14.6.0" type="github">
  <diagram id="q3UkswJ3IawG1TelA1qJ" name="Page-1">
    <mxGraphModel dx="2062" dy="1123" grid="1" gridSize="10" guides="1" tooltips="1" connect="1" arrows="1" fold="1" page="1" pageScale="1" pageWidth="850" pageHeight="1100" math="0" shadow="0">
      <root>
        <mxCell id="0" />
        <mxCell id="1" parent="0" />
        <mxCell id="sru9P3oSoeCR6d8DknK4-11" value="" style="points=[[0,0,0],[0.25,0,0],[0.5,0,0],[0.75,0,0],[1,0,0],[1,0.25,0],[1,0.5,0],[1,0.75,0],[1,1,0],[0.75,1,0],[0.5,1,0],[0.25,1,0],[0,1,0],[0,0.75,0],[0,0.5,0],[0,0.25,0]];rounded=1;absoluteArcSize=1;arcSize=2;html=1;strokeColor=none;gradientColor=none;shadow=0;dashed=0;fontSize=12;fontColor=#9E9E9E;align=left;verticalAlign=top;spacing=10;spacingTop=-4;fillColor=#E1F5FE;" vertex="1" parent="1">
          <mxGeometry x="280" y="210" width="510" height="385" as="geometry" />
        </mxCell>
        <mxCell id="sru9P3oSoeCR6d8DknK4-14" style="edgeStyle=orthogonalEdgeStyle;rounded=0;orthogonalLoop=1;jettySize=auto;html=1;exitX=1;exitY=0.25;exitDx=0;exitDy=0;entryX=0;entryY=0.5;entryDx=0;entryDy=0;entryPerimeter=0;" edge="1" parent="1" source="sru9P3oSoeCR6d8DknK4-2" target="sru9P3oSoeCR6d8DknK4-12">
          <mxGeometry relative="1" as="geometry" />
        </mxCell>
        <mxCell id="sru9P3oSoeCR6d8DknK4-15" style="edgeStyle=orthogonalEdgeStyle;rounded=0;orthogonalLoop=1;jettySize=auto;html=1;exitX=1;exitY=0.75;exitDx=0;exitDy=0;entryX=0;entryY=0.5;entryDx=0;entryDy=0;entryPerimeter=0;" edge="1" parent="1" source="sru9P3oSoeCR6d8DknK4-2" target="sru9P3oSoeCR6d8DknK4-13">
          <mxGeometry relative="1" as="geometry" />
        </mxCell>
        <mxCell id="sru9P3oSoeCR6d8DknK4-2" value="" style="shape=image;verticalLabelPosition=bottom;labelBackgroundColor=#ffffff;verticalAlign=top;aspect=fixed;imageAspect=0;image=https://2tjosk2rxzc21medji3nfn1g-wpengine.netdna-ssl.com/wp-content/uploads/2019/02/kong-logomark-blue-256px.png;" vertex="1" parent="1">
          <mxGeometry x="320" y="390" width="77.66" height="70" as="geometry" />
        </mxCell>
        <mxCell id="sru9P3oSoeCR6d8DknK4-5" style="edgeStyle=orthogonalEdgeStyle;rounded=0;orthogonalLoop=1;jettySize=auto;html=1;exitX=0.885;exitY=0.4;exitDx=0;exitDy=0;exitPerimeter=0;" edge="1" parent="1" source="sru9P3oSoeCR6d8DknK4-3">
          <mxGeometry relative="1" as="geometry">
            <mxPoint x="310" y="422" as="targetPoint" />
          </mxGeometry>
        </mxCell>
        <mxCell id="sru9P3oSoeCR6d8DknK4-3" value="" style="points=[[0.13,0.02,0],[0.5,0,0],[0.87,0.02,0],[0.885,0.4,0],[0.985,0.985,0],[0.5,1,0],[0.015,0.985,0],[0.115,0.4,0]];verticalLabelPosition=bottom;html=1;verticalAlign=top;aspect=fixed;align=center;pointerEvents=1;shape=mxgraph.cisco19.laptop;fillColor=#005073;strokeColor=none;" vertex="1" parent="1">
          <mxGeometry x="50" y="407.5" width="50" height="35" as="geometry" />
        </mxCell>
        <mxCell id="sru9P3oSoeCR6d8DknK4-6" value="Kong" style="text;html=1;align=center;verticalAlign=middle;resizable=0;points=[];autosize=1;strokeColor=none;" vertex="1" parent="1">
          <mxGeometry x="338.83" y="470" width="40" height="20" as="geometry" />
        </mxCell>
        <mxCell id="sru9P3oSoeCR6d8DknK4-7" value="/&lt;br&gt;/api" style="text;html=1;align=center;verticalAlign=middle;resizable=0;points=[];autosize=1;strokeColor=none;" vertex="1" parent="1">
          <mxGeometry x="420" y="407.5" width="30" height="30" as="geometry" />
        </mxCell>
        <mxCell id="sru9P3oSoeCR6d8DknK4-8" value="" style="strokeColor=#dddddd;shadow=1;strokeWidth=1;rounded=1;absoluteArcSize=1;arcSize=2;" vertex="1" parent="1">
          <mxGeometry x="460" y="220" width="130" height="60" as="geometry" />
        </mxCell>
        <mxCell id="sru9P3oSoeCR6d8DknK4-9" value="Kubernetes&#xa;Engine" style="dashed=0;connectable=0;html=1;fillColor=#5184F3;strokeColor=none;shape=mxgraph.gcp2.hexIcon;prIcon=container_engine;part=1;labelPosition=right;verticalLabelPosition=middle;align=left;verticalAlign=middle;spacingLeft=5;fontColor=#999999;fontSize=12;" vertex="1" parent="sru9P3oSoeCR6d8DknK4-8">
          <mxGeometry y="0.5" width="44" height="39" relative="1" as="geometry">
            <mxPoint x="5" y="-19.5" as="offset" />
          </mxGeometry>
        </mxCell>
        <mxCell id="sru9P3oSoeCR6d8DknK4-12" value="backend-lcz" style="points=[[0,0,0],[0.25,0,0],[0.5,0,0],[0.75,0,0],[1,0,0],[1,0.25,0],[1,0.5,0],[1,0.75,0],[1,1,0],[0.75,1,0],[0.5,1,0],[0.25,1,0],[0,1,0],[0,0.75,0],[0,0.5,0],[0,0.25,0]];rounded=1;absoluteArcSize=1;arcSize=2;html=1;strokeColor=none;gradientColor=none;shadow=0;dashed=0;fontSize=12;fontColor=#9E9E9E;align=left;verticalAlign=top;spacing=10;spacingTop=-4;fillColor=#EFEBE9;" vertex="1" parent="1">
          <mxGeometry x="550" y="337.5" width="170" height="70" as="geometry" />
        </mxCell>
        <mxCell id="sru9P3oSoeCR6d8DknK4-13" value="frontend-lcz" style="points=[[0,0,0],[0.25,0,0],[0.5,0,0],[0.75,0,0],[1,0,0],[1,0.25,0],[1,0.5,0],[1,0.75,0],[1,1,0],[0.75,1,0],[0.5,1,0],[0.25,1,0],[0,1,0],[0,0.75,0],[0,0.5,0],[0,0.25,0]];rounded=1;absoluteArcSize=1;arcSize=2;html=1;strokeColor=none;gradientColor=none;shadow=0;dashed=0;fontSize=12;fontColor=#9E9E9E;align=left;verticalAlign=top;spacing=10;spacingTop=-4;fillColor=#F3E5F5;" vertex="1" parent="1">
          <mxGeometry x="550" y="470" width="170" height="70" as="geometry" />
        </mxCell>
      </root>
    </mxGraphModel>
  </diagram>
</mxfile>
